<svg xmlns="http://www.w3.org/2000/svg" xmlns:xlink="http://www.w3.org/1999/xlink" viewBox="0,0,256,256" width="48px" height="48px" fill-rule="nonzero"><g transform="translate(20.48,20.48) scale(0.84,0.84)"><g fill="none" fill-rule="nonzero" stroke="none" stroke-width="1" stroke-linecap="butt" stroke-linejoin="miter" stroke-miterlimit="10" stroke-dasharray="" stroke-dashoffset="0" font-family="none" font-weight="none" font-size="none" text-anchor="none" style="mix-blend-mode: normal"><g transform="scale(5.33333,5.33333)"><path d="M26.055,24.519l-7.345,12.481h14.691z" fill="none"></path><path d="M14.279,36.641l9.455,-16.065l-4.653,-7.907l-14.319,24.331h9.366c0.05,-0.12 0.084,-0.244 0.151,-0.359c0,0.001 0,0.001 0,0z" fill="none"></path><path d="M14.262,39.569c-0.453,-0.792 -0.481,-1.74 -0.134,-2.569h-9.366l14.319,-24.331l4.653,7.907l2.321,-3.943l-4.358,-7.404c-0.551,-0.937 -1.528,-1.496 -2.615,-1.497c0,0 0,0 -0.001,0c-1.086,0 -2.064,0.559 -2.616,1.496l-16.007,27.197c-0.551,0.936 -0.559,2.103 -0.02,3.046c0.539,0.943 1.55,1.529 2.636,1.529h13.438c-0.932,-0.092 -1.78,-0.608 -2.25,-1.431zM2.182,37.44h0.01z" fill="#1de9b6"></path><path d="M47.65,36.641l-14.172,-24.079c-0.53,-0.9 -1.469,-1.437 -2.513,-1.437c-1.044,0 -1.984,0.537 -2.514,1.437l-2.396,4.071l2.321,3.943l2.589,-4.398l12.035,20.822h-5c0.258,0.802 0.151,1.724 -0.276,2.471c-0.539,0.943 -1.638,1.529 -2.724,1.529v0c0.001,0.013 -0.001,-0.013 0,0h10c1.043,0 2.149,-0.525 2.667,-1.431c0.519,-0.905 0.512,-2.027 -0.017,-2.928z" fill="#00bfa5"></path><path d="M38,37c-0.068,-0.21 -0.182,-0.381 -0.296,-0.575l-9.328,-15.849l-2.321,-3.943l-2.321,3.943l-9.455,16.065v0.001c-0.067,0.113 -0.101,0.238 -0.151,0.358c-0.347,0.829 -0.32,1.778 0.134,2.569c0.47,0.822 1.318,1.338 2.25,1.431h18.576c1.086,0 2.096,-0.586 2.635,-1.529c0.428,-0.747 0.535,-1.669 0.277,-2.471zM26.055,24.519l7.346,12.481h-14.691z" fill="#00838f"></path></g></g></g></svg>